<svg t="1698922227072" class="icon" viewBox="0 0 1024 1024" version="1.1" xmlns="http://www.w3.org/2000/svg" p-id="10855" width="200" height="200"><path d="M807.424 0c-12.288 0-22.016 9.728-22.016 22.016v979.968c0 12.288 9.728 22.016 22.016 22.016s22.016-9.728 22.016-22.016V22.016c0-12.288-9.728-22.016-22.016-22.016z m97.28 0c-12.288 0-22.016 9.728-22.016 22.016v979.968c0 12.288 9.728 22.016 22.016 22.016s22.016-9.728 22.016-22.016V22.016c0-12.288-9.728-22.016-22.016-22.016z m97.28 0c-12.288 0-22.016 9.728-22.016 22.016v979.968c0 12.288 9.728 22.016 22.016 22.016s22.016-9.728 22.016-22.016V22.016c0-12.288-9.728-22.016-22.016-22.016zM256.512 0H68.096C30.72 0 0 30.72 0 68.096v887.296C0 993.28 30.72 1024 68.096 1024H256c37.888 0 68.096-30.72 68.096-68.096V68.096C324.608 30.72 293.888 0 256.512 0z m-23.04 328.192H91.136c-12.288 0-22.016-9.728-22.016-22.016s9.728-22.016 22.016-22.016h142.336c12.288 0 22.016 9.728 22.016 22.016 0 11.776-9.728 22.016-22.016 22.016z m0-111.104H91.136c-12.288 0-22.016-9.728-22.016-22.016s9.728-22.016 22.016-22.016h142.336c12.288 0 22.016 9.728 22.016 22.016s-9.728 22.016-22.016 22.016zM652.8 0H464.896c-37.888 0-68.096 30.72-68.096 68.096v887.296c0 37.888 30.72 68.096 68.096 68.096h187.904c37.888 0 68.096-30.72 68.096-68.096V68.096C721.408 30.72 690.688 0 652.8 0z m-22.528 328.192H487.936c-12.288 0-22.016-9.728-22.016-22.016s9.728-22.016 22.016-22.016h142.336c12.288 0 22.016 9.728 22.016 22.016 0 11.776-10.24 22.016-22.016 22.016z m0-111.104H487.936c-12.288 0-22.016-9.728-22.016-22.016s9.728-22.016 22.016-22.016h142.336c12.288 0 22.016 9.728 22.016 22.016s-10.24 22.016-22.016 22.016z" p-id="10856" class="custom-cursor-on-hover"></path></svg>